<svg width="695" height="262" viewBox="0 0 695 262" fill="none" xmlns="http://www.w3.org/2000/svg">
<g filter="url(#filter0_d_1_2)">
<path d="M666.475 15L657.666 128.008H617.92L613.838 15H666.475ZM659.385 161.094C659.385 164.245 658.776 167.181 657.559 169.902C656.341 172.624 654.694 174.987 652.617 176.992C650.612 179.069 648.249 180.68 645.527 181.826C642.806 183.044 639.906 183.652 636.826 183.652C633.675 183.652 630.739 183.044 628.018 181.826C625.296 180.68 622.897 179.069 620.82 176.992C618.815 174.987 617.204 172.624 615.986 169.902C614.84 167.181 614.268 164.245 614.268 161.094C614.268 158.014 614.84 155.078 615.986 152.285C617.204 149.492 618.815 147.093 620.82 145.088C622.897 143.011 625.296 141.364 628.018 140.146C630.739 138.929 633.675 138.32 636.826 138.32C639.906 138.32 642.806 138.929 645.527 140.146C648.249 141.364 650.612 143.011 652.617 145.088C654.694 147.093 656.341 149.492 657.559 152.285C658.776 155.078 659.385 158.014 659.385 161.094Z" fill="#E53935"/>
<path d="M666.475 15L657.666 128.008H617.92L613.838 15H666.475ZM659.385 161.094C659.385 164.245 658.776 167.181 657.559 169.902C656.341 172.624 654.694 174.987 652.617 176.992C650.612 179.069 648.249 180.68 645.527 181.826C642.806 183.044 639.906 183.652 636.826 183.652C633.675 183.652 630.739 183.044 628.018 181.826C625.296 180.68 622.897 179.069 620.82 176.992C618.815 174.987 617.204 172.624 615.986 169.902C614.84 167.181 614.268 164.245 614.268 161.094C614.268 158.014 614.84 155.078 615.986 152.285C617.204 149.492 618.815 147.093 620.82 145.088C622.897 143.011 625.296 141.364 628.018 140.146C630.739 138.929 633.675 138.32 636.826 138.32C639.906 138.32 642.806 138.929 645.527 140.146C648.249 141.364 650.612 143.011 652.617 145.088C654.694 147.093 656.341 149.492 657.559 152.285C658.776 155.078 659.385 158.014 659.385 161.094Z" stroke="black" stroke-width="12"/>
</g>
<g filter="url(#filter1_d_1_2)">
<path d="M601.123 119.629C601.123 129.44 599.404 137.926 595.967 145.088C592.601 152.178 587.946 158.05 582.002 162.705C576.13 167.288 569.219 170.69 561.27 172.91C553.392 175.059 544.906 176.133 535.811 176.133C532.301 176.133 528.434 175.667 524.209 174.736C520.055 173.805 515.83 172.66 511.533 171.299C507.236 169.867 503.083 168.363 499.072 166.787C495.133 165.14 491.624 163.6 488.545 162.168L493.271 120.059C499.359 123.711 506.09 126.504 513.467 128.438C520.915 130.299 528.219 131.23 535.381 131.23C536.742 131.23 538.389 131.195 540.322 131.123C542.256 130.98 544.082 130.658 545.801 130.156C547.591 129.583 549.095 128.76 550.312 127.686C551.53 126.611 552.139 125.072 552.139 123.066C552.139 121.706 551.709 120.56 550.85 119.629C549.99 118.626 548.88 117.839 547.52 117.266C546.159 116.621 544.619 116.156 542.9 115.869C541.182 115.511 539.499 115.26 537.852 115.117C536.204 114.974 534.665 114.902 533.232 114.902C531.8 114.902 530.654 114.902 529.795 114.902C523.636 114.902 518.014 113.936 512.93 112.002C507.917 110.068 503.584 107.347 499.932 103.838C496.351 100.257 493.558 95.9603 491.553 90.9473C489.548 85.8626 488.545 80.2409 488.545 74.082C488.545 65.6315 490.228 58.0762 493.594 51.416C497.031 44.6842 501.579 38.9909 507.236 34.3359C512.965 29.6094 519.518 25.9928 526.895 23.4863C534.271 20.9798 541.898 19.7266 549.775 19.7266C553.285 19.7266 556.901 19.8698 560.625 20.1562C564.349 20.3711 568.037 20.8008 571.689 21.4453C575.413 22.0898 579.03 22.9134 582.539 23.916C586.048 24.9186 589.378 26.1719 592.529 27.6758L588.447 71.2891C583.577 69.6419 578.457 68.2812 573.086 67.207C567.786 66.0612 562.594 65.4883 557.51 65.4883C556.579 65.4883 555.361 65.5241 553.857 65.5957C552.425 65.5957 550.885 65.7031 549.238 65.918C547.663 66.0612 546.051 66.3118 544.404 66.6699C542.757 67.028 541.289 67.5293 540 68.1738C538.711 68.7467 537.673 69.5345 536.885 70.5371C536.097 71.5397 535.739 72.7214 535.811 74.082C535.882 75.6576 536.455 76.875 537.529 77.7344C538.675 78.5938 540.107 79.2383 541.826 79.668C543.617 80.026 545.55 80.2051 547.627 80.2051C549.775 80.2051 551.888 80.1693 553.965 80.0977C556.042 79.9544 557.975 79.847 559.766 79.7754C561.556 79.6322 563.024 79.5964 564.17 79.668C569.899 80.026 575.055 81.2435 579.639 83.3203C584.222 85.3971 588.089 88.1543 591.24 91.5918C594.463 95.0293 596.898 99.1471 598.545 103.945C600.264 108.672 601.123 113.9 601.123 119.629Z" fill="#E53935"/>
<path d="M601.123 119.629C601.123 129.44 599.404 137.926 595.967 145.088C592.601 152.178 587.946 158.05 582.002 162.705C576.13 167.288 569.219 170.69 561.27 172.91C553.392 175.059 544.906 176.133 535.811 176.133C532.301 176.133 528.434 175.667 524.209 174.736C520.055 173.805 515.83 172.66 511.533 171.299C507.236 169.867 503.083 168.363 499.072 166.787C495.133 165.14 491.624 163.6 488.545 162.168L493.271 120.059C499.359 123.711 506.09 126.504 513.467 128.438C520.915 130.299 528.219 131.23 535.381 131.23C536.742 131.23 538.389 131.195 540.322 131.123C542.256 130.98 544.082 130.658 545.801 130.156C547.591 129.583 549.095 128.76 550.312 127.686C551.53 126.611 552.139 125.072 552.139 123.066C552.139 121.706 551.709 120.56 550.85 119.629C549.99 118.626 548.88 117.839 547.52 117.266C546.159 116.621 544.619 116.156 542.9 115.869C541.182 115.511 539.499 115.26 537.852 115.117C536.204 114.974 534.665 114.902 533.232 114.902C531.8 114.902 530.654 114.902 529.795 114.902C523.636 114.902 518.014 113.936 512.93 112.002C507.917 110.068 503.584 107.347 499.932 103.838C496.351 100.257 493.558 95.9603 491.553 90.9473C489.548 85.8626 488.545 80.2409 488.545 74.082C488.545 65.6315 490.228 58.0762 493.594 51.416C497.031 44.6842 501.579 38.9909 507.236 34.3359C512.965 29.6094 519.518 25.9928 526.895 23.4863C534.271 20.9798 541.898 19.7266 549.775 19.7266C553.285 19.7266 556.901 19.8698 560.625 20.1562C564.349 20.3711 568.037 20.8008 571.689 21.4453C575.413 22.0898 579.03 22.9134 582.539 23.916C586.048 24.9186 589.378 26.1719 592.529 27.6758L588.447 71.2891C583.577 69.6419 578.457 68.2812 573.086 67.207C567.786 66.0612 562.594 65.4883 557.51 65.4883C556.579 65.4883 555.361 65.5241 553.857 65.5957C552.425 65.5957 550.885 65.7031 549.238 65.918C547.663 66.0612 546.051 66.3118 544.404 66.6699C542.757 67.028 541.289 67.5293 540 68.1738C538.711 68.7467 537.673 69.5345 536.885 70.5371C536.097 71.5397 535.739 72.7214 535.811 74.082C535.882 75.6576 536.455 76.875 537.529 77.7344C538.675 78.5938 540.107 79.2383 541.826 79.668C543.617 80.026 545.55 80.2051 547.627 80.2051C549.775 80.2051 551.888 80.1693 553.965 80.0977C556.042 79.9544 557.975 79.847 559.766 79.7754C561.556 79.6322 563.024 79.5964 564.17 79.668C569.899 80.026 575.055 81.2435 579.639 83.3203C584.222 85.3971 588.089 88.1543 591.24 91.5918C594.463 95.0293 596.898 99.1471 598.545 103.945C600.264 108.672 601.123 113.9 601.123 119.629Z" stroke="black" stroke-width="12"/>
</g>
<g filter="url(#filter2_d_1_2)">
<path d="M477.75 71.0742C477.75 76.6602 477.249 81.7448 476.246 86.3281C475.315 90.8398 473.811 94.9935 471.734 98.7891C469.658 102.585 466.972 106.094 463.678 109.316C460.383 112.539 456.409 115.618 451.754 118.555L477.32 164.102L428.98 173.555L412.438 127.793L399.117 128.223L397.184 172.91H350.992C351.35 156.582 351.673 140.326 351.959 124.141C352.317 107.956 352.711 91.6992 353.141 75.3711C353.284 67.1354 353.427 58.9714 353.57 50.8789C353.714 42.7865 354 34.6224 354.43 26.3867C359.443 24.5247 364.384 22.985 369.254 21.7676C374.124 20.5501 378.993 19.6191 383.863 18.9746C388.805 18.2585 393.782 17.793 398.795 17.5781C403.88 17.2917 409.072 17.1484 414.371 17.1484C422.535 17.1484 430.413 18.2943 438.004 20.5859C445.667 22.806 452.434 26.1719 458.307 30.6836C464.179 35.1953 468.87 40.8171 472.379 47.5488C475.96 54.2806 477.75 62.1224 477.75 71.0742ZM429.625 74.5117C429.625 71.5039 429.195 68.7467 428.336 66.2402C427.548 63.7337 426.331 61.5853 424.684 59.7949C423.108 57.9329 421.103 56.5007 418.668 55.498C416.305 54.4238 413.512 53.8867 410.289 53.8867C408.857 53.8867 407.46 53.9941 406.1 54.209C404.739 54.3522 403.414 54.6029 402.125 54.9609L400.406 94.9219H402.984C406.064 94.9219 409.179 94.528 412.33 93.7402C415.553 92.9525 418.417 91.735 420.924 90.0879C423.502 88.4408 425.579 86.3281 427.154 83.75C428.801 81.1719 429.625 78.0924 429.625 74.5117Z" fill="#E53935"/>
<path d="M477.75 71.0742C477.75 76.6602 477.249 81.7448 476.246 86.3281C475.315 90.8398 473.811 94.9935 471.734 98.7891C469.658 102.585 466.972 106.094 463.678 109.316C460.383 112.539 456.409 115.618 451.754 118.555L477.32 164.102L428.98 173.555L412.438 127.793L399.117 128.223L397.184 172.91H350.992C351.35 156.582 351.673 140.326 351.959 124.141C352.317 107.956 352.711 91.6992 353.141 75.3711C353.284 67.1354 353.427 58.9714 353.57 50.8789C353.714 42.7865 354 34.6224 354.43 26.3867C359.443 24.5247 364.384 22.985 369.254 21.7676C374.124 20.5501 378.993 19.6191 383.863 18.9746C388.805 18.2585 393.782 17.793 398.795 17.5781C403.88 17.2917 409.072 17.1484 414.371 17.1484C422.535 17.1484 430.413 18.2943 438.004 20.5859C445.667 22.806 452.434 26.1719 458.307 30.6836C464.179 35.1953 468.87 40.8171 472.379 47.5488C475.96 54.2806 477.75 62.1224 477.75 71.0742ZM429.625 74.5117C429.625 71.5039 429.195 68.7467 428.336 66.2402C427.548 63.7337 426.331 61.5853 424.684 59.7949C423.108 57.9329 421.103 56.5007 418.668 55.498C416.305 54.4238 413.512 53.8867 410.289 53.8867C408.857 53.8867 407.46 53.9941 406.1 54.209C404.739 54.3522 403.414 54.6029 402.125 54.9609L400.406 94.9219H402.984C406.064 94.9219 409.179 94.528 412.33 93.7402C415.553 92.9525 418.417 91.735 420.924 90.0879C423.502 88.4408 425.579 86.3281 427.154 83.75C428.801 81.1719 429.625 78.0924 429.625 74.5117Z" stroke="black" stroke-width="12"/>
</g>
<g filter="url(#filter3_d_1_2)">
<path d="M335.545 19.7266C335.115 26.4583 334.721 33.1185 334.363 39.707C334.005 46.2956 333.54 52.9557 332.967 59.6875L287.42 62.0508L286.346 75.5859H318.357L315.994 108.887L283.768 109.961L282.693 125.645H309.334H328.24C327.811 133.522 327.345 141.364 326.844 149.17C326.414 156.904 326.02 164.674 325.662 172.48L233.064 174.629L236.502 19.7266H335.545Z" fill="#E53935"/>
<path d="M335.545 19.7266C335.115 26.4583 334.721 33.1185 334.363 39.707C334.005 46.2956 333.54 52.9557 332.967 59.6875L287.42 62.0508L286.346 75.5859H318.357L315.994 108.887L283.768 109.961L282.693 125.645H309.334H328.24C327.811 133.522 327.345 141.364 326.844 149.17C326.414 156.904 326.02 164.674 325.662 172.48L233.064 174.629L236.502 19.7266H335.545Z" stroke="black" stroke-width="12"/>
</g>
<g filter="url(#filter4_d_1_2)">
<path d="M148.379 21.0156L147.305 66.5625L115.293 67.8516L107.129 169.688L61.7969 172.051L62.0117 70.2148L30 71.9336L31.2891 21.2305L148.379 21.0156Z" fill="#E53935"/>
<path d="M148.379 21.0156L147.305 66.5625L115.293 67.8516L107.129 169.688L61.7969 172.051L62.0117 70.2148L30 71.9336L31.2891 21.2305L148.379 21.0156Z" stroke="black" stroke-width="12"/>
</g>
<g filter="url(#filter5_d_1_2)">
<path d="M218.805 23.3789L206.988 169.688L161.656 172.051V26.3867L218.805 23.3789Z" fill="#E53935"/>
<path d="M218.805 23.3789L206.988 169.688L161.656 172.051V26.3867L218.805 23.3789Z" stroke="black" stroke-width="12"/>
</g>
<g filter="url(#filter6_d_1_2)">
<path d="M550.627 204.27C553.406 204.27 555.888 204.564 558.052 205.177L558.449 205.283C560.391 205.821 562.023 206.577 563.258 207.607C564.607 208.629 565.543 209.962 565.543 211.618C565.543 212.65 565.259 213.614 564.669 214.457C564.166 215.255 563.465 215.858 562.6 216.251C562.128 216.466 561.578 216.422 561.147 216.134C560.54 215.73 559.721 215.277 558.67 214.78C558.641 214.766 558.613 214.751 558.584 214.735C557.697 214.242 556.597 213.826 555.265 213.506C555.247 213.502 555.228 213.498 555.21 213.493C553.927 213.133 552.489 212.946 550.885 212.946C548.542 212.946 546.813 213.4 545.579 214.177C544.451 214.887 543.957 215.792 543.956 217.036C543.956 217.905 544.237 218.662 544.843 219.363C545.489 219.99 546.609 220.575 548.39 220.994C548.395 220.995 548.401 220.996 548.406 220.998L554.324 222.456C558.377 223.409 561.596 224.968 563.813 227.242H563.814C566.091 229.519 567.177 232.505 567.177 236.042C567.177 240.135 565.646 243.459 562.547 245.833C559.488 248.176 555.213 249.238 549.939 249.238C545.447 249.238 541.648 248.561 538.626 247.113C538.619 247.109 538.611 247.106 538.604 247.102C535.807 245.704 533.647 243.84 533.647 241.288C533.647 240.338 533.888 239.432 534.346 238.591C534.353 238.579 534.36 238.566 534.368 238.554C534.917 237.613 535.699 236.879 536.671 236.355C537.172 236.086 537.782 236.123 538.247 236.45C539.701 237.473 541.419 238.43 543.411 239.315C545.253 240.134 547.391 240.562 549.853 240.562C552.713 240.562 554.595 240.072 555.723 239.313C556.746 238.625 557.297 237.618 557.297 236.042C557.297 234.717 556.899 233.772 556.188 233.061C556.168 233.041 556.15 233.021 556.131 233C555.425 232.211 554.277 231.552 552.519 231.138C552.506 231.135 552.492 231.132 552.479 231.128L545.34 229.236H545.339C541.702 228.338 538.837 226.916 536.957 224.835C536.952 224.83 536.947 224.824 536.942 224.818C535.071 222.68 534.163 220.052 534.163 217.036C534.163 213.531 535.608 210.503 538.353 208.013C541.207 205.425 545.396 204.27 550.627 204.27Z" fill="white" stroke="black" stroke-width="3" stroke-linejoin="round"/>
<path d="M520.881 188.79C522.264 188.79 523.602 189.06 524.575 189.898C525.687 190.743 526.08 192.045 526.08 193.386V240.084C526.08 241.41 525.763 242.64 525.005 243.65L525.005 243.649C524.384 244.495 523.462 245.244 522.352 245.922L522.351 245.921C521.043 246.764 519.28 247.49 517.13 248.132L517.13 248.133C514.83 248.879 512.232 249.238 509.358 249.238C505.056 249.238 501.197 248.49 497.815 246.953C494.375 245.389 491.676 242.939 489.745 239.638L489.739 239.627C487.792 236.235 486.874 231.969 486.874 226.926C486.874 221.781 487.758 217.463 489.642 214.071C489.646 214.065 489.65 214.06 489.653 214.054C491.565 210.724 494.154 208.24 497.421 206.664C500.624 205.062 504.124 204.27 507.896 204.27C510.275 204.27 512.549 204.606 514.71 205.285C515.228 205.448 515.725 205.622 516.2 205.808V190.892C516.2 190.278 516.573 189.727 517.142 189.499C517.547 189.337 518.066 189.206 518.644 189.089C519.383 188.892 520.129 188.79 520.881 188.79ZM508.584 212.946C506.461 212.946 504.519 213.41 502.734 214.328C502.724 214.333 502.713 214.339 502.703 214.344C501.029 215.157 499.64 216.537 498.56 218.594C497.511 220.593 496.925 223.391 496.925 227.098C496.925 232.102 498.137 235.433 500.239 237.444C502.426 239.479 505.384 240.562 509.272 240.562C511.189 240.562 512.649 240.367 513.708 240.032C514.624 239.712 515.454 239.353 516.2 238.955V215.105C515.587 214.721 514.893 214.361 514.11 214.033C514.092 214.026 514.073 214.018 514.055 214.01C512.575 213.319 510.766 212.946 508.584 212.946Z" fill="white" stroke="black" stroke-width="3" stroke-linejoin="round"/>
<path d="M460.87 204.27C466.294 204.27 470.758 205.519 474.086 208.196L474.409 208.455C477.697 211.174 479.227 215.254 479.227 220.39V246.448C479.227 247.061 478.853 247.613 478.284 247.84C477.866 248.007 477.31 248.139 476.692 248.253C475.999 248.452 475.281 248.55 474.544 248.55C473.146 248.55 471.826 248.303 470.825 247.575C470.783 247.544 470.742 247.512 470.703 247.477C469.701 246.575 469.346 245.288 469.346 243.954V220.734C469.346 217.803 468.518 215.959 467.149 214.846C467.143 214.841 467.136 214.837 467.13 214.832C465.697 213.63 463.667 212.946 460.87 212.946C458.699 212.946 456.824 213.218 455.225 213.734C453.874 214.17 452.704 214.651 451.706 215.169V246.448C451.706 247.061 451.333 247.612 450.764 247.84C450.361 248.001 449.845 248.133 449.27 248.25C448.56 248.454 447.809 248.55 447.025 248.55C445.665 248.55 444.382 248.296 443.39 247.575C443.367 247.558 443.344 247.541 443.323 247.523C442.235 246.633 441.826 245.331 441.826 243.954V214.628C441.826 213.247 442.088 211.972 442.737 210.917L442.752 210.893C443.433 209.834 444.495 208.918 445.805 208.107L445.845 208.083C447.465 207.148 449.551 206.31 452.064 205.548C454.705 204.688 457.646 204.27 460.87 204.27Z" fill="white" stroke="black" stroke-width="3" stroke-linejoin="round"/>
<path d="M415.587 204.27C419.302 204.27 422.632 205.063 425.527 206.7H425.526C428.462 208.326 430.754 210.62 432.38 213.558H432.379C434.065 216.446 434.888 219.741 434.888 223.4C434.888 224.844 434.566 226.235 433.589 227.212C433.571 227.231 433.551 227.25 433.532 227.267C432.667 228.046 431.549 228.441 430.328 228.583L430.329 228.583L405.473 232.06C406.165 234.313 407.251 236.086 408.692 237.433C410.983 239.465 414.168 240.562 418.424 240.562C420.664 240.562 422.645 240.189 424.389 239.471C426.259 238.701 427.669 237.906 428.668 237.107L428.764 237.036C429.256 236.703 429.903 236.69 430.41 237.012C431.183 237.504 431.823 238.125 432.296 238.879C432.882 239.66 433.169 240.569 433.169 241.546C433.168 243.286 432.145 244.707 430.694 245.829L430.686 245.835C429.282 246.906 427.453 247.719 425.276 248.324L425.275 248.323C423.113 248.939 420.71 249.238 418.081 249.238C413.485 249.238 409.408 248.402 405.895 246.676L405.886 246.671C402.406 244.931 399.691 242.34 397.768 238.928C397.763 238.919 397.758 238.909 397.753 238.9C395.89 235.422 394.995 231.267 394.995 226.496C394.995 223.09 395.473 220.016 396.462 217.297C396.464 217.292 396.465 217.286 396.467 217.28C397.502 214.541 398.918 212.188 400.731 210.25L400.749 210.231C402.622 208.295 404.84 206.829 407.387 205.834C409.926 204.786 412.665 204.27 415.587 204.27ZM415.501 212.86C412.359 212.86 409.812 213.979 407.752 216.241L407.751 216.24C406.171 217.978 405.156 220.415 404.823 223.672L425.183 220.908C424.798 218.712 423.896 216.93 422.508 215.501C422.504 215.496 422.499 215.491 422.494 215.486C420.887 213.784 418.622 212.86 415.501 212.86Z" fill="white" stroke="black" stroke-width="3" stroke-linejoin="round"/>
<path d="M381.684 204.958C383.04 204.958 384.348 205.239 385.311 206.081C386.426 206.94 386.797 208.283 386.797 209.64V246.448C386.797 247.061 386.423 247.613 385.853 247.841C385.451 248.002 384.935 248.132 384.36 248.249C383.651 248.453 382.899 248.55 382.115 248.55C380.756 248.55 379.473 248.297 378.48 247.575C378.457 247.558 378.435 247.541 378.413 247.523C377.326 246.634 376.917 245.331 376.917 243.954V207.06C376.917 206.447 377.29 205.896 377.859 205.668C378.268 205.504 378.793 205.37 379.378 205.252C380.123 205.055 380.893 204.958 381.684 204.958ZM381.856 188.532C383.535 188.532 385.013 189.096 386.136 190.299H386.135C387.213 191.395 387.743 192.774 387.743 194.332C387.743 195.906 387.204 197.307 386.136 198.452C386.124 198.464 386.112 198.477 386.099 198.489C384.97 199.619 383.503 200.132 381.856 200.132C380.245 200.132 378.81 199.606 377.651 198.524C377.639 198.513 377.626 198.501 377.614 198.489C376.476 197.351 375.885 195.938 375.885 194.332C375.885 192.824 376.407 191.496 377.438 190.434L377.651 190.225C378.798 189.097 380.231 188.532 381.856 188.532Z" fill="white" stroke="black" stroke-width="3" stroke-linejoin="round"/>
<path d="M363.036 204.27C365.406 204.27 367.407 204.559 368.867 205.289C369.619 205.664 370.272 206.179 370.735 206.873C371.203 207.576 371.416 208.375 371.416 209.21C371.416 209.936 371.307 210.642 371.081 211.319C371.076 211.336 371.069 211.353 371.063 211.371C370.837 211.972 370.527 212.523 370.123 213.008C369.771 213.431 369.215 213.627 368.676 213.519C368.153 213.414 367.448 213.305 366.549 213.193C365.693 213.086 364.837 213.032 363.983 213.032C361.45 213.032 359.272 213.308 357.429 213.834C357.416 213.838 357.403 213.842 357.39 213.845C355.859 214.239 354.578 214.694 353.529 215.197V246.448C353.529 247.061 353.155 247.612 352.586 247.84C352.184 248.001 351.667 248.133 351.092 248.25C350.383 248.454 349.631 248.55 348.847 248.55C347.487 248.55 346.205 248.296 345.212 247.575C345.189 247.558 345.167 247.541 345.145 247.523C344.058 246.633 343.649 245.331 343.649 243.954V214.8C343.649 213.335 343.899 211.99 344.559 210.917L344.575 210.893C345.244 209.852 346.26 208.939 347.513 208.125C349.18 207.036 351.371 206.157 354.021 205.448V205.447C356.757 204.656 359.766 204.27 363.036 204.27Z" fill="white" stroke="black" stroke-width="3" stroke-linejoin="round"/>
<path d="M329.811 187.5C333.179 187.5 335.982 187.938 338.101 188.932L338.1 188.933C340.142 189.864 341.802 191.303 341.802 193.472C341.802 194.314 341.613 195.117 341.218 195.854C340.905 196.54 340.456 197.159 339.901 197.715C339.427 198.188 338.697 198.29 338.112 197.965C337.241 197.481 336.097 197.065 334.645 196.742C334.628 196.738 334.611 196.735 334.594 196.73C333.155 196.357 331.791 196.176 330.498 196.176C327.121 196.176 325.213 196.884 324.271 197.865C323.283 198.894 322.624 200.722 322.624 203.706V207.624H338.153L338.328 207.635C338.733 207.682 339.105 207.893 339.353 208.224C339.673 208.651 339.905 209.21 340.091 209.768H340.09C340.327 210.421 340.426 211.134 340.426 211.876C340.426 213.038 340.133 214.152 339.36 215.022C339.34 215.044 339.32 215.066 339.299 215.087C338.477 215.909 337.384 216.214 336.26 216.214H322.71V246.448C322.71 247.061 322.337 247.613 321.768 247.841C321.366 248.002 320.85 248.132 320.276 248.249C319.566 248.453 318.814 248.55 318.029 248.55C316.669 248.55 315.386 248.297 314.394 247.575C314.371 247.558 314.349 247.54 314.327 247.522C313.24 246.633 312.831 245.332 312.831 243.954V203.362C312.831 199.819 313.459 196.806 314.841 194.437L314.847 194.426C316.27 192.033 318.29 190.273 320.866 189.175L321.355 188.969C323.824 187.975 326.654 187.5 329.811 187.5Z" fill="white" stroke="black" stroke-width="3" stroke-linejoin="round"/>
<path d="M253.014 188.79C254.363 188.79 255.663 189.069 256.625 189.9C257.735 190.745 258.126 192.046 258.126 193.386V206.472C258.499 206.297 258.883 206.123 259.279 205.95L259.755 205.744C262.156 204.75 264.849 204.27 267.806 204.27C272.848 204.27 277.113 205.644 280.473 208.497C283.948 211.447 285.561 215.858 285.561 221.422V246.448C285.561 247.061 285.187 247.613 284.618 247.841C284.201 248.007 283.646 248.137 283.03 248.252C282.336 248.451 281.617 248.55 280.878 248.55C279.48 248.55 278.16 248.304 277.159 247.575C277.117 247.545 277.076 247.511 277.038 247.477C276.035 246.574 275.68 245.288 275.68 243.954V221.594C275.68 218.434 274.793 216.369 273.283 215.081C273.277 215.076 273.271 215.071 273.266 215.066C271.702 213.692 269.614 212.946 266.861 212.946C264.829 212.946 262.948 213.334 261.204 214.102L260.553 214.41C259.662 214.852 258.855 215.336 258.126 215.855V246.448C258.126 247.061 257.753 247.613 257.184 247.841C256.782 248.002 256.266 248.132 255.692 248.249C254.982 248.453 254.23 248.55 253.445 248.55C252.085 248.55 250.802 248.297 249.81 247.575C249.787 247.558 249.765 247.541 249.743 247.523C248.655 246.634 248.247 245.332 248.247 243.954V190.892C248.247 190.278 248.621 189.727 249.19 189.499C249.594 189.337 250.113 189.206 250.691 189.089C251.441 188.889 252.217 188.79 253.014 188.79Z" fill="white" stroke="black" stroke-width="3" stroke-linejoin="round"/>
<path d="M220.93 193.262C222.279 193.262 223.579 193.541 224.541 194.372C225.651 195.217 226.042 196.518 226.042 197.858V206.248H238.647L238.822 206.258C239.227 206.306 239.598 206.517 239.846 206.848C240.166 207.275 240.399 207.834 240.585 208.392C240.811 209.069 240.92 209.774 240.92 210.5C240.92 211.662 240.627 212.777 239.854 213.647C239.063 214.536 237.995 214.924 236.84 214.924H226.042V235.784C226.042 237.789 226.606 238.873 227.395 239.466C228.376 240.141 229.838 240.562 231.939 240.562C232.741 240.562 233.689 240.42 234.794 240.104C235.92 239.782 236.804 239.421 237.472 239.039C238.059 238.704 238.798 238.803 239.277 239.281C239.738 239.742 240.134 240.291 240.474 240.904C240.903 241.677 241.092 242.537 241.092 243.438C241.092 245.439 239.853 246.893 238.068 247.855C236.27 248.823 233.924 249.238 231.164 249.238C226.934 249.238 223.338 248.3 220.496 246.298C220.492 246.295 220.487 246.291 220.483 246.288C217.496 244.135 216.163 240.637 216.162 236.214V195.364C216.163 194.75 216.536 194.199 217.106 193.971C217.51 193.809 218.029 193.678 218.607 193.561C219.357 193.361 220.133 193.262 220.93 193.262Z" fill="white" stroke="black" stroke-width="3" stroke-linejoin="round"/>
<path d="M200.53 204.958C201.886 204.958 203.193 205.239 204.157 206.081C205.272 206.94 205.642 208.283 205.642 209.64V246.448C205.642 247.061 205.269 247.613 204.699 247.841C204.297 248.002 203.78 248.132 203.206 248.249C202.496 248.453 201.745 248.55 200.961 248.55C199.601 248.55 198.318 248.297 197.326 247.575C197.303 247.558 197.281 247.541 197.259 247.523C196.171 246.634 195.763 245.331 195.763 243.954V207.06C195.763 206.447 196.136 205.896 196.705 205.668C197.114 205.504 197.642 205.369 198.228 205.251C198.972 205.055 199.741 204.958 200.53 204.958ZM200.702 188.532C202.381 188.532 203.859 189.096 204.981 190.299H204.98C206.058 191.395 206.589 192.774 206.589 194.332C206.589 195.906 206.05 197.307 204.981 198.452C204.97 198.464 204.957 198.477 204.945 198.489C203.816 199.619 202.349 200.132 200.702 200.132C199.091 200.132 197.656 199.606 196.497 198.524C196.484 198.513 196.472 198.501 196.46 198.489C195.322 197.351 194.73 195.938 194.73 194.332C194.73 192.824 195.253 191.496 196.284 190.434L196.497 190.225C197.644 189.097 199.077 188.532 200.702 188.532Z" fill="white" stroke="black" stroke-width="3" stroke-linejoin="round"/>
<path d="M183.632 204.614C184.835 204.614 185.976 204.899 186.891 205.631C187.928 206.461 188.314 207.682 188.314 208.952C188.314 209.769 188.074 211.116 187.684 212.848L187.685 212.849C187.333 214.668 186.837 216.794 186.201 219.222C185.568 221.64 184.848 224.226 184.045 226.981C183.296 229.691 182.517 232.344 181.71 234.939L181.707 234.949C180.9 237.486 180.12 239.798 179.367 241.884C178.678 243.95 178.061 245.598 177.518 246.805C177.42 247.022 177.273 247.213 177.087 247.361C176.554 247.787 175.832 248.047 175.114 248.23C174.303 248.512 173.406 248.636 172.452 248.636C171.186 248.636 170.041 248.492 169.104 248.122C168.144 247.741 167.316 247.08 166.926 246.045V246.046C166.113 243.955 165.188 241.382 164.151 238.331L164.149 238.322C163.113 235.213 162.048 231.876 160.956 228.311L160.954 228.305C160.952 228.298 160.949 228.291 160.947 228.284C160.945 228.277 160.944 228.269 160.941 228.262C160.939 228.256 160.937 228.249 160.935 228.242C160.932 228.235 160.931 228.227 160.929 228.22C160.927 228.213 160.924 228.206 160.922 228.199C160.92 228.192 160.918 228.185 160.916 228.178L160.902 228.135C160.9 228.129 160.899 228.122 160.896 228.115C160.894 228.108 160.892 228.101 160.89 228.094C160.888 228.086 160.886 228.079 160.884 228.072C160.882 228.065 160.879 228.058 160.877 228.052C160.875 228.044 160.873 228.037 160.871 228.03C160.869 228.023 160.866 228.016 160.864 228.009C160.862 228.002 160.86 227.995 160.858 227.988C160.856 227.981 160.854 227.974 160.852 227.967C160.849 227.96 160.848 227.952 160.846 227.945C160.844 227.938 160.841 227.931 160.839 227.925C160.837 227.918 160.835 227.91 160.833 227.903C160.831 227.896 160.828 227.889 160.826 227.882C160.824 227.875 160.822 227.868 160.82 227.861L160.807 227.818C160.805 227.811 160.803 227.804 160.801 227.798C160.799 227.791 160.796 227.783 160.794 227.776C160.792 227.769 160.79 227.762 160.788 227.755C160.786 227.748 160.783 227.741 160.781 227.734C160.779 227.727 160.778 227.72 160.775 227.713C160.773 227.706 160.771 227.698 160.769 227.691C160.767 227.684 160.765 227.677 160.763 227.671C160.761 227.664 160.758 227.656 160.756 227.649C160.754 227.642 160.752 227.635 160.75 227.628C160.748 227.621 160.745 227.614 160.743 227.607C160.741 227.6 160.739 227.593 160.737 227.586C160.735 227.579 160.733 227.571 160.73 227.564C160.728 227.557 160.726 227.551 160.724 227.544C160.722 227.537 160.72 227.529 160.718 227.522C160.716 227.515 160.713 227.508 160.711 227.501C160.709 227.494 160.707 227.486 160.705 227.479C160.703 227.472 160.7 227.466 160.698 227.459C160.696 227.452 160.695 227.444 160.692 227.437C160.69 227.43 160.688 227.423 160.686 227.416C160.683 227.409 160.682 227.402 160.68 227.395C160.678 227.388 160.675 227.381 160.673 227.374C160.671 227.367 160.669 227.359 160.667 227.352C160.665 227.345 160.662 227.339 160.66 227.332C160.658 227.325 160.656 227.317 160.654 227.31C160.652 227.303 160.65 227.296 160.647 227.289C160.645 227.282 160.644 227.275 160.642 227.268L160.628 227.225C160.626 227.219 160.624 227.212 160.622 227.205C160.62 227.198 160.617 227.19 160.615 227.183C160.613 227.176 160.611 227.169 160.609 227.162C160.607 227.155 160.605 227.148 160.603 227.141C160.6 227.134 160.599 227.127 160.597 227.12C160.595 227.113 160.592 227.105 160.59 227.098C160.588 227.092 160.586 227.085 160.584 227.078C160.582 227.071 160.579 227.063 160.577 227.056C160.575 227.049 160.573 227.042 160.571 227.035C160.569 227.028 160.567 227.021 160.564 227.014C160.562 227.007 160.561 227 160.559 226.993C160.556 226.986 160.554 226.978 160.552 226.971C160.55 226.965 160.547 226.958 160.545 226.951C160.543 226.944 160.541 226.936 160.539 226.929C160.537 226.922 160.534 226.915 160.532 226.908C160.53 226.901 160.528 226.894 160.526 226.887C160.524 226.88 160.522 226.873 160.52 226.866C160.517 226.859 160.516 226.852 160.514 226.844C160.512 226.838 160.509 226.831 160.507 226.824C160.505 226.817 160.503 226.81 160.501 226.802C160.499 226.795 160.496 226.788 160.494 226.781C160.492 226.774 160.49 226.767 160.488 226.76C160.486 226.753 160.484 226.746 160.481 226.739C160.479 226.732 160.478 226.725 160.476 226.718C160.474 226.711 160.471 226.704 160.469 226.697C160.467 226.69 160.465 226.683 160.463 226.676C160.461 226.668 160.458 226.661 160.456 226.654C160.454 226.647 160.451 226.64 160.449 226.634C160.447 226.627 160.445 226.619 160.443 226.612C160.441 226.605 160.439 226.598 160.437 226.591C160.434 226.584 160.433 226.577 160.431 226.57C160.429 226.563 160.426 226.556 160.424 226.549C160.422 226.542 160.42 226.534 160.418 226.527C160.416 226.52 160.413 226.513 160.411 226.507C160.409 226.5 160.407 226.492 160.405 226.485C160.403 226.478 160.401 226.471 160.398 226.464C160.396 226.457 160.395 226.45 160.393 226.443C160.39 226.436 160.388 226.429 160.386 226.422C160.384 226.415 160.382 226.407 160.38 226.4C160.378 226.393 160.375 226.387 160.373 226.38C160.371 226.373 160.368 226.365 160.366 226.358C160.364 226.351 160.362 226.344 160.36 226.337C160.358 226.33 160.356 226.323 160.354 226.316C160.351 226.309 160.35 226.302 160.348 226.295C160.346 226.288 160.343 226.28 160.341 226.273C160.339 226.266 160.337 226.259 160.335 226.253C160.333 226.246 160.33 226.238 160.328 226.231C160.326 226.224 160.324 226.217 160.322 226.21C160.32 226.203 160.318 226.195 160.315 226.188C160.313 226.181 160.312 226.175 160.31 226.168C160.307 226.161 160.305 226.153 160.303 226.146C160.301 226.139 160.299 226.132 160.297 226.125C160.295 226.118 160.292 226.111 160.29 226.104C160.288 226.097 160.286 226.09 160.284 226.083C160.282 226.076 160.279 226.068 160.277 226.061C160.275 226.054 160.273 226.048 160.271 226.041C160.268 226.034 160.267 226.026 160.265 226.019C160.263 226.012 160.26 226.005 160.258 225.998C160.256 225.991 160.254 225.984 160.252 225.977C160.25 225.97 160.247 225.963 160.245 225.956C160.243 225.949 160.241 225.941 160.239 225.934C160.237 225.927 160.235 225.921 160.232 225.914C160.23 225.907 160.229 225.899 160.227 225.892C160.224 225.885 160.222 225.878 160.22 225.871C160.218 225.864 160.216 225.857 160.214 225.85C160.212 225.843 160.209 225.836 160.207 225.829C160.205 225.822 160.203 225.814 160.201 225.807C160.199 225.8 160.196 225.794 160.194 225.787C160.192 225.78 160.19 225.772 160.188 225.765C160.185 225.758 160.184 225.751 160.182 225.744C160.18 225.737 160.177 225.73 160.175 225.723C160.173 225.716 160.171 225.709 160.169 225.702C160.167 225.695 160.164 225.687 160.162 225.68C160.16 225.674 160.158 225.667 160.156 225.66C160.154 225.653 160.152 225.645 160.149 225.638C160.147 225.631 160.146 225.624 160.144 225.617C160.141 225.61 160.139 225.603 160.137 225.596C160.135 225.589 160.133 225.582 160.131 225.575C160.129 225.568 160.126 225.561 160.124 225.553C160.122 225.547 160.12 225.54 160.118 225.533L160.104 225.49C160.102 225.483 160.101 225.476 160.099 225.469C160.097 225.462 160.094 225.455 160.092 225.448C160.09 225.441 160.088 225.434 160.086 225.427C160.084 225.42 160.081 225.413 160.079 225.406C160.077 225.399 160.075 225.392 160.073 225.385C160.071 225.377 160.069 225.37 160.066 225.363C160.064 225.356 160.063 225.349 160.061 225.343C160.058 225.335 160.056 225.328 160.054 225.321C160.052 225.314 160.05 225.307 160.048 225.3C160.046 225.293 160.043 225.286 160.041 225.279C160.039 225.272 160.037 225.265 160.035 225.258C160.033 225.251 160.03 225.243 160.028 225.236C160.026 225.229 160.025 225.222 160.022 225.216L160.009 225.173C160.007 225.166 160.005 225.159 160.003 225.152C160.001 225.145 159.998 225.138 159.996 225.131C159.994 225.124 159.992 225.116 159.99 225.109C159.988 225.102 159.985 225.096 159.983 225.089C159.981 225.082 159.98 225.074 159.978 225.067C159.975 225.06 159.973 225.053 159.971 225.046C159.969 225.039 159.967 225.032 159.965 225.025C159.963 225.018 159.96 225.011 159.958 225.004C159.956 224.997 159.954 224.989 159.952 224.982C159.95 224.975 159.947 224.969 159.945 224.962C159.943 224.955 159.942 224.947 159.939 224.94C159.937 224.933 159.935 224.926 159.933 224.919C159.931 224.912 159.928 224.905 159.926 224.898C159.924 224.891 159.922 224.884 159.92 224.877C159.918 224.87 159.915 224.862 159.913 224.855C159.911 224.848 159.909 224.841 159.907 224.834C159.905 224.827 159.902 224.82 159.9 224.813C159.898 224.806 159.897 224.799 159.895 224.792C159.892 224.785 159.89 224.777 159.888 224.77C159.886 224.763 159.884 224.757 159.882 224.75C159.88 224.743 159.877 224.735 159.875 224.728C159.873 224.721 159.871 224.714 159.869 224.707C159.867 224.7 159.864 224.693 159.862 224.686C159.86 224.679 159.859 224.672 159.856 224.665C159.854 224.658 159.852 224.65 159.85 224.643C159.848 224.637 159.846 224.63 159.844 224.623L159.83 224.58C159.828 224.573 159.826 224.566 159.824 224.559C159.822 224.552 159.82 224.545 159.817 224.538C159.815 224.531 159.814 224.523 159.812 224.516C159.809 224.509 159.807 224.503 159.805 224.496C159.803 224.489 159.801 224.481 159.799 224.474C159.797 224.467 159.794 224.46 159.792 224.453C159.79 224.446 159.788 224.439 159.786 224.432C159.784 224.425 159.781 224.418 159.779 224.411C159.777 224.404 159.776 224.396 159.773 224.389C159.771 224.383 159.769 224.376 159.767 224.369C159.764 224.362 159.763 224.354 159.761 224.347C159.759 224.34 159.756 224.333 159.754 224.326C159.752 224.319 159.749 224.312 159.747 224.305C159.745 224.298 159.743 224.291 159.741 224.284C159.739 224.277 159.737 224.27 159.734 224.262C159.732 224.256 159.731 224.249 159.729 224.242C159.726 224.235 159.724 224.228 159.722 224.22C159.72 224.213 159.718 224.206 159.716 224.199C159.714 224.192 159.711 224.185 159.709 224.178C159.707 224.171 159.705 224.164 159.703 224.157C159.701 224.15 159.698 224.143 159.696 224.135C159.694 224.129 159.692 224.122 159.69 224.115C159.688 224.108 159.686 224.101 159.684 224.094C159.681 224.086 159.68 224.079 159.678 224.072C159.676 224.065 159.673 224.058 159.671 224.052C159.669 224.045 159.667 224.037 159.665 224.03C159.663 224.023 159.66 224.016 159.658 224.009C159.656 224.002 159.653 223.995 159.651 223.988C159.649 223.981 159.648 223.974 159.646 223.967C159.643 223.959 159.641 223.952 159.639 223.945C159.637 223.938 159.635 223.931 159.633 223.925C159.631 223.918 159.628 223.91 159.626 223.903C159.624 223.896 159.622 223.889 159.62 223.882C159.618 223.875 159.615 223.868 159.613 223.861C159.611 223.854 159.61 223.847 159.607 223.84C159.605 223.833 159.603 223.825 159.601 223.818C159.599 223.811 159.597 223.804 159.595 223.798C159.593 223.791 159.59 223.783 159.588 223.776C159.586 223.769 159.584 223.762 159.582 223.755C159.58 223.748 159.577 223.741 159.575 223.734C159.573 223.727 159.57 223.72 159.568 223.713C159.566 223.706 159.565 223.698 159.562 223.691C159.56 223.684 159.558 223.678 159.556 223.671C159.554 223.664 159.552 223.656 159.55 223.649C159.548 223.642 159.545 223.635 159.543 223.628C159.541 223.621 159.539 223.614 159.537 223.607C159.535 223.6 159.532 223.593 159.53 223.586C159.528 223.579 159.527 223.571 159.524 223.564C159.522 223.557 159.52 223.55 159.518 223.543C159.516 223.536 159.514 223.529 159.512 223.522C159.51 223.515 159.507 223.508 159.505 223.501C159.503 223.494 159.501 223.486 159.499 223.479C159.497 223.472 159.494 223.466 159.492 223.459C159.49 223.452 159.488 223.444 159.486 223.437C159.484 223.43 159.482 223.423 159.479 223.416C159.477 223.409 159.475 223.402 159.473 223.395C159.471 223.388 159.469 223.381 159.467 223.374C159.465 223.367 159.462 223.359 159.46 223.352C159.458 223.345 159.456 223.339 159.454 223.332C159.452 223.325 159.449 223.317 159.447 223.31C159.445 223.303 159.444 223.296 159.441 223.289C159.439 223.282 159.437 223.275 159.435 223.268C159.432 223.261 159.431 223.254 159.429 223.247C159.427 223.24 159.424 223.232 159.422 223.225C159.42 223.219 159.418 223.212 159.416 223.205C159.414 223.198 159.411 223.19 159.409 223.183C159.407 223.176 159.405 223.169 159.403 223.162C159.401 223.155 159.399 223.148 159.396 223.141C159.394 223.134 159.392 223.127 159.39 223.12C159.388 223.113 159.386 223.105 159.384 223.098C159.382 223.091 159.379 223.085 159.377 223.078C159.375 223.071 159.373 223.063 159.371 223.056C159.369 223.049 159.366 223.042 159.364 223.035C159.362 223.028 159.36 223.021 159.358 223.014C159.356 223.007 159.354 223 159.352 222.993C159.349 222.986 159.348 222.978 159.346 222.971C159.344 222.965 159.341 222.958 159.339 222.951C159.337 222.944 159.335 222.936 159.333 222.929C159.331 222.922 159.328 222.915 159.326 222.908C159.324 222.901 159.322 222.894 159.32 222.887L159.307 222.844C159.305 222.838 159.303 222.831 159.301 222.824C159.299 222.817 159.296 222.81 159.294 222.802C159.292 222.795 159.29 222.788 159.288 222.781C159.286 222.774 159.283 222.767 159.281 222.76C159.279 222.753 159.278 222.746 159.275 222.739C159.273 222.732 159.271 222.725 159.269 222.718C159.267 222.711 159.265 222.704 159.263 222.697C159.261 222.69 159.258 222.683 159.256 222.676C159.254 222.668 159.252 222.661 159.25 222.654C159.248 222.647 159.245 222.64 159.243 222.634C159.241 222.627 159.239 222.619 159.237 222.612C159.235 222.605 159.233 222.598 159.23 222.591C159.228 222.584 159.227 222.577 159.225 222.57L159.211 222.527C159.209 222.52 159.207 222.513 159.205 222.507C159.203 222.5 159.2 222.492 159.198 222.485C159.196 222.478 159.195 222.471 159.192 222.464C159.19 222.457 159.188 222.45 159.186 222.443C159.183 222.436 159.182 222.429 159.18 222.422C159.178 222.415 159.175 222.407 159.173 222.4C159.171 222.393 159.169 222.386 159.167 222.38C159.165 222.373 159.162 222.365 159.16 222.358C159.158 222.351 159.156 222.344 159.154 222.337C159.152 222.33 159.15 222.323 159.147 222.316C159.145 222.309 159.144 222.302 159.142 222.295C159.139 222.288 159.137 222.28 159.135 222.273L159.134 222.271C158.513 224.296 157.866 226.322 157.191 228.346L157.19 228.345C156.043 231.96 154.924 235.349 153.832 238.51C152.737 241.678 151.726 244.425 150.797 246.747C150.679 247.042 150.469 247.293 150.199 247.462C149.616 247.826 148.975 248.109 148.287 248.315C147.514 248.547 146.575 248.636 145.534 248.636C144.443 248.636 143.4 248.432 142.416 248.019V248.02C141.34 247.606 140.512 246.86 140.05 245.799C139.436 244.565 138.756 242.839 138.009 240.656C138.005 240.645 138.002 240.633 137.998 240.622C137.305 238.427 136.555 235.919 135.75 233.1C135.747 233.091 135.745 233.082 135.742 233.073C134.997 230.266 134.224 227.372 133.422 224.392L133.42 224.385C132.615 221.339 131.867 218.405 131.177 215.587C131.174 215.577 131.173 215.568 131.171 215.558C130.539 212.744 129.993 210.244 129.532 208.057C129.428 207.561 129.581 207.046 129.939 206.687C130.441 206.185 131.03 205.74 131.69 205.344L131.744 205.313C132.635 204.828 133.637 204.614 134.698 204.614C136.049 204.614 137.325 205.009 138.213 206.049C139.064 206.928 139.527 208.189 139.776 209.584L140.595 213.437C140.88 214.793 141.18 216.226 141.493 217.737L142.524 222.27C142.867 223.768 143.209 225.258 143.551 226.741C144.296 229.721 144.955 232.417 145.529 234.828C145.606 235.115 145.679 235.394 145.751 235.663C145.983 234.933 146.238 234.135 146.511 233.269C147.488 230.107 148.637 226.518 149.957 222.502L149.963 222.483C151.337 218.474 152.712 214.408 154.087 210.284L154.134 210.162C154.254 209.884 154.456 209.648 154.715 209.486C155.341 209.095 156.047 208.839 156.803 208.694C157.563 208.492 158.367 208.398 159.208 208.398C160.417 208.398 161.546 208.631 162.516 209.188C163.529 209.713 164.232 210.556 164.58 211.641H164.581C165.961 215.609 167.256 219.52 168.464 223.375L170.164 228.757C170.694 230.447 171.189 232.038 171.647 233.529L172.288 235.587C172.3 235.627 172.312 235.667 172.324 235.707C173.316 231.897 174.364 227.896 175.474 223.704C177.011 217.895 178.264 212.205 179.23 206.632L179.265 206.479C179.364 206.129 179.588 205.825 179.896 205.627C180.986 204.926 182.256 204.614 183.632 204.614Z" fill="white" stroke="black" stroke-width="3" stroke-linejoin="round"/>
</g>
<defs>
<filter id="filter0_d_1_2" x="605.617" y="9" width="73.3433" height="188.652" filterUnits="userSpaceOnUse" color-interpolation-filters="sRGB">
<feFlood flood-opacity="0" result="BackgroundImageFix"/>
<feColorMatrix in="SourceAlpha" type="matrix" values="0 0 0 0 0 0 0 0 0 0 0 0 0 0 0 0 0 0 127 0" result="hardAlpha"/>
<feOffset dx="2" dy="4"/>
<feGaussianBlur stdDeviation="2"/>
<feComposite in2="hardAlpha" operator="out"/>
<feColorMatrix type="matrix" values="0 0 0 0 0 0 0 0 0 0 0 0 0 0 0 0 0 0 0.25 0"/>
<feBlend mode="normal" in2="BackgroundImageFix" result="effect1_dropShadow_1_2"/>
<feBlend mode="normal" in="SourceGraphic" in2="effect1_dropShadow_1_2" result="shape"/>
</filter>
<filter id="filter1_d_1_2" x="480.101" y="13.7266" width="133.022" height="176.406" filterUnits="userSpaceOnUse" color-interpolation-filters="sRGB">
<feFlood flood-opacity="0" result="BackgroundImageFix"/>
<feColorMatrix in="SourceAlpha" type="matrix" values="0 0 0 0 0 0 0 0 0 0 0 0 0 0 0 0 0 0 127 0" result="hardAlpha"/>
<feOffset dx="2" dy="4"/>
<feGaussianBlur stdDeviation="2"/>
<feComposite in2="hardAlpha" operator="out"/>
<feColorMatrix type="matrix" values="0 0 0 0 0 0 0 0 0 0 0 0 0 0 0 0 0 0 0.25 0"/>
<feBlend mode="normal" in2="BackgroundImageFix" result="effect1_dropShadow_1_2"/>
<feBlend mode="normal" in="SourceGraphic" in2="effect1_dropShadow_1_2" result="shape"/>
</filter>
<filter id="filter2_d_1_2" x="342.859" y="11.1484" width="149.754" height="177.281" filterUnits="userSpaceOnUse" color-interpolation-filters="sRGB">
<feFlood flood-opacity="0" result="BackgroundImageFix"/>
<feColorMatrix in="SourceAlpha" type="matrix" values="0 0 0 0 0 0 0 0 0 0 0 0 0 0 0 0 0 0 127 0" result="hardAlpha"/>
<feOffset dx="2" dy="4"/>
<feGaussianBlur stdDeviation="2"/>
<feComposite in2="hardAlpha" operator="out"/>
<feColorMatrix type="matrix" values="0 0 0 0 0 0 0 0 0 0 0 0 0 0 0 0 0 0 0.25 0"/>
<feBlend mode="normal" in2="BackgroundImageFix" result="effect1_dropShadow_1_2"/>
<feBlend mode="normal" in="SourceGraphic" in2="effect1_dropShadow_1_2" result="shape"/>
</filter>
<filter id="filter3_d_1_2" x="224.927" y="13.7266" width="123.013" height="175.046" filterUnits="userSpaceOnUse" color-interpolation-filters="sRGB">
<feFlood flood-opacity="0" result="BackgroundImageFix"/>
<feColorMatrix in="SourceAlpha" type="matrix" values="0 0 0 0 0 0 0 0 0 0 0 0 0 0 0 0 0 0 127 0" result="hardAlpha"/>
<feOffset dx="2" dy="4"/>
<feGaussianBlur stdDeviation="2"/>
<feComposite in2="hardAlpha" operator="out"/>
<feColorMatrix type="matrix" values="0 0 0 0 0 0 0 0 0 0 0 0 0 0 0 0 0 0 0.25 0"/>
<feBlend mode="normal" in2="BackgroundImageFix" result="effect1_dropShadow_1_2"/>
<feBlend mode="normal" in="SourceGraphic" in2="effect1_dropShadow_1_2" result="shape"/>
</filter>
<filter id="filter4_d_1_2" x="21.8369" y="15.0043" width="138.685" height="171.368" filterUnits="userSpaceOnUse" color-interpolation-filters="sRGB">
<feFlood flood-opacity="0" result="BackgroundImageFix"/>
<feColorMatrix in="SourceAlpha" type="matrix" values="0 0 0 0 0 0 0 0 0 0 0 0 0 0 0 0 0 0 127 0" result="hardAlpha"/>
<feOffset dx="2" dy="4"/>
<feGaussianBlur stdDeviation="2"/>
<feComposite in2="hardAlpha" operator="out"/>
<feColorMatrix type="matrix" values="0 0 0 0 0 0 0 0 0 0 0 0 0 0 0 0 0 0 0.25 0"/>
<feBlend mode="normal" in2="BackgroundImageFix" result="effect1_dropShadow_1_2"/>
<feBlend mode="normal" in="SourceGraphic" in2="effect1_dropShadow_1_2" result="shape"/>
</filter>
<filter id="filter5_d_1_2" x="153.656" y="17.0268" width="77.681" height="169.345" filterUnits="userSpaceOnUse" color-interpolation-filters="sRGB">
<feFlood flood-opacity="0" result="BackgroundImageFix"/>
<feColorMatrix in="SourceAlpha" type="matrix" values="0 0 0 0 0 0 0 0 0 0 0 0 0 0 0 0 0 0 127 0" result="hardAlpha"/>
<feOffset dx="2" dy="4"/>
<feGaussianBlur stdDeviation="2"/>
<feComposite in2="hardAlpha" operator="out"/>
<feColorMatrix type="matrix" values="0 0 0 0 0 0 0 0 0 0 0 0 0 0 0 0 0 0 0.25 0"/>
<feBlend mode="normal" in2="BackgroundImageFix" result="effect1_dropShadow_1_2"/>
<feBlend mode="normal" in="SourceGraphic" in2="effect1_dropShadow_1_2" result="shape"/>
</filter>
<filter id="filter6_d_1_2" x="126" y="186" width="448.677" height="72.738" filterUnits="userSpaceOnUse" color-interpolation-filters="sRGB">
<feFlood flood-opacity="0" result="BackgroundImageFix"/>
<feColorMatrix in="SourceAlpha" type="matrix" values="0 0 0 0 0 0 0 0 0 0 0 0 0 0 0 0 0 0 127 0" result="hardAlpha"/>
<feOffset dx="2" dy="4"/>
<feGaussianBlur stdDeviation="2"/>
<feComposite in2="hardAlpha" operator="out"/>
<feColorMatrix type="matrix" values="0 0 0 0 0 0 0 0 0 0 0 0 0 0 0 0 0 0 0.25 0"/>
<feBlend mode="normal" in2="BackgroundImageFix" result="effect1_dropShadow_1_2"/>
<feBlend mode="normal" in="SourceGraphic" in2="effect1_dropShadow_1_2" result="shape"/>
</filter>
</defs>
</svg>
